<svg width="250" height="30" viewBox="0 0 250 30" fill="none" xmlns="http://www.w3.org/2000/svg">
<path d="M228.993 29.3051C229.717 29.7197 230.506 29.927 231.36 29.927H244.865C245.745 29.927 246.534 29.7197 247.233 29.3051C247.957 28.8646 248.526 28.2946 248.94 27.595C249.38 26.8695 249.6 26.0793 249.6 25.2242V21.7651C249.6 20.9101 249.38 20.1328 248.94 19.4332C248.526 18.7077 247.957 18.1377 247.233 17.7231C246.534 17.2826 245.745 17.0624 244.865 17.0624H231.36C230.946 17.0624 230.584 16.9199 230.273 16.6348C229.989 16.3239 229.846 15.9612 229.846 15.5466V12.0875C229.846 11.673 229.989 11.3232 230.273 11.0382C230.584 10.7272 230.946 10.5718 231.36 10.5718H244.865H249.341C249.238 10.2889 249.104 10.0168 248.94 9.75558C248.526 9.03009 247.957 8.46005 247.233 8.04549C246.534 7.60501 245.745 7.38477 244.865 7.38477H231.36C230.506 7.38477 229.717 7.60501 228.993 8.04549C228.294 8.46005 227.725 9.03009 227.285 9.75558C226.871 10.4552 226.664 11.2325 226.664 12.0875V15.5466C226.664 16.4016 226.871 17.1919 227.285 17.9174C227.725 18.617 228.294 19.187 228.993 19.6275C229.717 20.0421 230.506 20.2494 231.36 20.2494H244.865C245.279 20.2494 245.628 20.4048 245.913 20.7158C246.224 21.0008 246.379 21.3506 246.379 21.7651V25.2242C246.379 25.6388 246.224 26.0015 245.913 26.3124C245.628 26.5975 245.279 26.74 244.865 26.74H231.36H226.903C227 27.0343 227.128 27.3194 227.285 27.595C227.725 28.2946 228.294 28.8646 228.993 29.3051Z" fill="#BEA787"/>
<path d="M219.079 29.9267C218.225 29.9267 217.436 29.7194 216.711 29.3049C216.013 28.8644 215.444 28.2943 215.004 27.5948C214.59 26.8693 214.383 26.079 214.383 25.2239V0H217.565V25.2239C217.565 25.6385 217.707 26.0013 217.992 26.3122C218.302 26.5972 218.665 26.7397 219.079 26.7397H221.669V29.9267H219.079Z" fill="#BEA787"/>
<path d="M158.743 7.38477C159.623 7.38477 160.413 7.60542 161.111 8.0459C161.836 8.46044 162.405 9.03053 162.818 9.75586C163.258 10.4554 163.479 11.2329 163.479 12.0879V25.2246C163.478 26.0794 163.258 26.8694 162.818 27.5947C162.404 28.2942 161.836 28.8642 161.111 29.3047C160.413 29.7193 159.623 29.9268 158.743 29.9268H145.238C144.384 29.9268 143.596 29.7193 142.871 29.3047C142.173 28.8642 141.603 28.2943 141.163 27.5947C140.761 26.8899 140.555 26.1239 140.544 25.2969H140.508V12.1602C140.508 11.7459 140.353 11.3962 140.043 11.1113C139.758 10.8005 139.409 10.6446 138.995 10.6445H132.766V7.45801H138.995C139.875 7.45807 140.664 7.67775 141.362 8.11816C142.087 8.53267 142.655 9.10283 143.069 9.82812C143.509 10.5277 143.729 11.3052 143.729 12.1602V25.2969H143.728C143.743 25.6812 143.884 26.0199 144.151 26.3125C144.462 26.5975 144.824 26.7402 145.238 26.7402H158.743C159.157 26.7402 159.506 26.5974 159.791 26.3125C160.101 26.0017 160.257 25.639 160.257 25.2246V12.0879C160.257 11.6733 160.101 11.3231 159.791 11.0381C159.506 10.7273 159.157 10.5713 158.743 10.5713H146.451V7.38477H158.743Z" fill="#BEA787"/>
<path d="M123.809 29.9267C122.929 29.9267 122.127 29.7194 121.403 29.3049C120.704 28.8644 120.148 28.2943 119.734 27.5948C119.32 26.8693 119.113 26.079 119.113 25.2239V0H122.296V7.38451H130.824V10.5715H122.296V25.2239C122.296 25.6385 122.438 26.0013 122.722 26.3122C123.033 26.5972 123.395 26.7397 123.809 26.7397H125.973V29.9267H123.809Z" fill="#3D5B60"/>
<path d="M173.239 29.9267C172.359 29.9267 171.557 29.7194 170.833 29.3049C170.134 28.8644 169.578 28.2943 169.164 27.5948C168.75 26.8693 168.543 26.079 168.543 25.2239V0H171.725V7.38451H180.253V10.5715H171.725V25.2239C171.725 25.6385 171.868 26.0013 172.152 26.3122C172.463 26.5972 172.825 26.7397 173.239 26.7397H175.402V29.9267H173.239Z" fill="#BEA787"/>
<path d="M96.6758 29.927V12.0875C96.6758 11.2325 96.8828 10.4552 97.2967 9.75558C97.7365 9.03009 98.3057 8.46005 99.0043 8.04549C99.7287 7.60501 100.518 7.38477 101.372 7.38477H114.023V10.5718H101.372C100.958 10.5718 100.595 10.7272 100.285 11.0382C100 11.3232 99.8581 11.673 99.8581 12.0875V29.927H96.6758Z" fill="#3D5B60"/>
<path d="M86.0801 7.38477C86.9597 7.38477 87.7487 7.60542 88.4473 8.0459C89.1717 8.46047 89.7413 9.03037 90.1553 9.75586C90.595 10.4554 90.8145 11.233 90.8145 12.0879V29.9268H72.5752C71.7214 29.9268 70.9315 29.7193 70.207 29.3047C69.5087 28.8643 68.9397 28.2941 68.5 27.5947C68.0862 26.8694 67.879 26.0794 67.8789 25.2246V21.7559C67.8789 20.9008 68.0861 20.1102 68.5 19.3848C68.9397 18.6853 69.5087 18.1152 70.207 17.6748C70.9315 17.2602 71.7214 17.0527 72.5752 17.0527H77.8916V17.0625H87.5938V12.0879C87.5938 11.6733 87.4384 11.3231 87.1279 11.0381C86.8433 10.7272 86.494 10.5723 86.0801 10.5723H71.0615C71.0615 10.5723 71.1139 9.58272 72.0234 8.36816C72.7927 7.38454 74.2441 7.38477 74.2441 7.38477H86.0801ZM72.5752 20.2393C72.1613 20.2393 71.7987 20.3821 71.4883 20.667C71.2037 20.9779 71.0615 21.3413 71.0615 21.7559V25.2246C71.0616 25.639 71.2038 26.0017 71.4883 26.3125C71.7987 26.5975 72.1613 26.7402 72.5752 26.7402H87.5938V20.249H75.9121V20.2393H72.5752Z" fill="#3D5B60"/>
<path d="M57.9072 7.45752C58.7869 7.45752 59.5768 7.67817 60.2754 8.11865C60.9996 8.5332 61.5686 9.10328 61.9824 9.82861C62.3963 10.5282 62.6035 11.3057 62.6035 12.1606V29.9995H59.46V12.1606C59.46 11.7461 59.3046 11.3959 58.9941 11.1108C58.6837 10.8 58.3211 10.644 57.9072 10.644H48.5547C48.1408 10.6441 47.7782 10.8 47.4678 11.1108C47.1833 11.3958 47.041 11.7462 47.041 12.1606V29.9995H43.8203V12.1606C43.8203 11.7461 43.665 11.3959 43.3545 11.1108C43.0699 10.7999 42.7206 10.644 42.3066 10.644H33.1602C32.7464 10.6441 32.3846 10.8001 32.0742 11.1108C31.7638 11.3959 31.6084 11.7461 31.6084 12.1606V29.9995H28.4648V12.1606C28.4648 11.3056 28.672 10.5282 29.0859 9.82861C29.4998 9.10322 30.0687 8.53321 30.793 8.11865C31.4259 7.71955 32.1334 7.50282 32.915 7.46533V7.45752H57.9072Z" fill="#3D5B60"/>
<path d="M2.32851 29.3051C3.05293 29.7197 3.84203 29.927 4.69582 29.927H18.2012C19.0808 29.927 19.8699 29.7197 20.5685 29.3051C21.2929 28.8646 21.8621 28.2946 22.276 27.595C22.7159 26.8695 22.9358 26.0793 22.9358 25.2242V21.7651C22.9358 20.9101 22.7159 20.1328 22.276 19.4332C21.8621 18.7077 21.2929 18.1377 20.5685 17.7231C19.8699 17.2826 19.0808 17.0624 18.2012 17.0624H4.69582C4.28186 17.0624 3.91965 16.9199 3.60918 16.6348C3.32459 16.3239 3.18229 15.9612 3.18229 15.5466V12.0875C3.18229 11.673 3.32459 11.3232 3.60918 11.0382C3.91965 10.7272 4.28186 10.5718 4.69582 10.5718H18.2012H22.6767C22.5738 10.2889 22.4403 10.0168 22.276 9.75558C21.8621 9.03009 21.2929 8.46005 20.5685 8.04549C19.8699 7.60501 19.0808 7.38477 18.2012 7.38477H4.69582C3.84203 7.38477 3.05293 7.60501 2.32851 8.04549C1.62995 8.46005 1.06076 9.03009 0.620935 9.75558C0.206978 10.4552 0 11.2325 0 12.0875V15.5466C0 16.4016 0.206978 17.1919 0.620935 17.9174C1.06076 18.617 1.62995 19.187 2.32851 19.6275C3.05293 20.0421 3.84203 20.2494 4.69582 20.2494H18.2012C18.6151 20.2494 18.9644 20.4048 19.249 20.7158C19.5594 21.0008 19.7147 21.3506 19.7147 21.7651V25.2242C19.7147 25.6388 19.5594 26.0015 19.249 26.3124C18.9644 26.5975 18.6151 26.74 18.2012 26.74H4.69582H0.238713C0.336238 27.0343 0.463645 27.3194 0.620935 27.595C1.06076 28.2946 1.62995 28.8646 2.32851 29.3051Z" fill="#3D5B60"/>
<path d="M203.893 7.38477C204.772 7.38477 205.561 7.60549 206.26 8.0459C206.984 8.46045 207.554 9.03041 207.968 9.75586C208.407 10.4554 208.627 11.2329 208.627 12.0879V20.249H188.874V25.2246C188.874 25.639 189.016 26.0017 189.301 26.3125C189.611 26.5975 189.974 26.7402 190.388 26.7402H208.627C208.627 29.0487 206.48 29.8264 205.406 29.9268H190.388C189.534 29.9267 188.745 29.7192 188.021 29.3047C187.322 28.8642 186.752 28.2943 186.312 27.5947C185.899 26.8694 185.691 26.0794 185.691 25.2246V12.0879C185.691 11.233 185.899 10.4554 186.312 9.75586C186.752 9.03041 187.322 8.46046 188.021 8.0459C188.745 7.6055 189.534 7.3848 190.388 7.38477H203.893ZM189.788 10.5713C189.374 10.5713 189.012 10.7272 188.701 11.0381C188.417 11.3231 188.274 11.6734 188.274 12.0879V17.0625H204.807V12.0879C204.807 11.6733 204.651 11.3231 204.341 11.0381C204.056 10.7273 203.707 10.5713 203.293 10.5713H189.788Z" fill="#BEA787"/>
</svg>
